<?xml version="1.0" encoding="utf-8"?>
<!-- Generator: Adobe Illustrator 16.0.0, SVG Export Plug-In . SVG Version: 6.00 Build 0)  -->
<!DOCTYPE svg PUBLIC "-//W3C//DTD SVG 1.1//EN" "http://www.w3.org/Graphics/SVG/1.1/DTD/svg11.dtd">
<svg version="1.1" id="Layer_1" xmlns="http://www.w3.org/2000/svg" xmlns:xlink="http://www.w3.org/1999/xlink" x="0px" y="0px"
	 width="192.5px" height="43px" viewBox="0 0 192.5 43" enable-background="new 0 0 192.5 43" xml:space="preserve">
<path fill="#DB011C" d="M21.463,27.407c0,1.081-0.226,2.01-0.676,2.786c-0.451,0.777-1.07,1.414-1.857,1.909
	c-0.789,0.495-1.706,0.861-2.753,1.098c-1.047,0.236-2.157,0.354-3.328,0.354H1.061V9.571h13.917c0.833,0,1.587,0.181,2.263,0.541
	c0.675,0.36,1.25,0.827,1.723,1.401c0.473,0.574,0.838,1.228,1.098,1.96c0.259,0.731,0.389,1.48,0.389,2.246
	c0,1.126-0.287,2.201-0.861,3.226c-0.574,1.025-1.436,1.796-2.584,2.313c1.374,0.405,2.46,1.109,3.26,2.111
	C21.063,24.373,21.463,25.718,21.463,27.407z M7.647,15.179v3.683h4.493c0.45,0,0.861-0.124,1.233-0.372
	c0.372-0.247,0.557-0.743,0.557-1.486c0-0.652-0.158-1.12-0.473-1.401c-0.316-0.281-0.688-0.423-1.115-0.423H7.647z M14.775,26.056
	c0-0.585-0.158-1.075-0.473-1.47c-0.315-0.394-0.721-0.591-1.216-0.591H7.647v4.02h5.202c0.541,0,0.997-0.169,1.368-0.507
	C14.589,27.171,14.775,26.687,14.775,26.056z"/>
<path fill="#DB011C" d="M24.368,33.555V9.571h11.012c1.171,0,2.251,0.243,3.243,0.727c0.991,0.484,1.841,1.115,2.55,1.892
	c0.709,0.777,1.267,1.667,1.672,2.669s0.608,2.01,0.608,3.022c0,1.397-0.304,2.697-0.912,3.902
	c-0.608,1.204-1.452,2.189-2.533,2.955l5.067,8.816h-7.432L33.42,26.19h-2.466v7.364H24.368z M30.955,20.448h4.155
	c0.405,0,0.782-0.225,1.131-0.676c0.349-0.45,0.524-1.08,0.524-1.892c0-0.832-0.203-1.469-0.608-1.908
	c-0.405-0.438-0.811-0.658-1.216-0.658h-3.986V20.448z"/>
<path fill="#DB011C" d="M64.26,27.812v5.742H47.168V9.571h16.788v5.743H53.755v3.378h8.715v5.337h-8.715v3.783H64.26z"/>
<path fill="#DB011C" d="M73.92,21.766v11.789h-6.587V9.571h5.134l9.627,12.194V9.571h6.587v23.983h-5.236L73.92,21.766z"/>
<path fill="#DB011C" d="M111.482,15.314h-6.892v18.24h-6.587v-18.24H91.08V9.571h20.403V15.314z"/>
<path fill="#DB011C" d="M132.02,33.555V20.922L128,29.806h-3.514l-4.02-8.884v12.633h-6.587V9.571h7.194l5.168,11.282l5.203-11.282
	h7.16v23.983H132.02z"/>
<path fill="#DB011C" d="M142.727,33.555V9.571h6.587v23.983H142.727z"/>
<path fill="#DB011C" d="M153.434,33.555V9.571h6.588v18.241h10.876v5.742H153.434z"/>
<path fill="#DB011C" d="M173.194,33.555V9.571h6.587v18.241h10.877v5.742H173.194z"/>
</svg>
