<?xml version="1.0" encoding="utf-8"?>
<!-- Generator: Adobe Illustrator 23.0.0, SVG Export Plug-In . SVG Version: 6.00 Build 0)  -->
<svg version="1.1" id="Layer_1" xmlns="http://www.w3.org/2000/svg" xmlns:xlink="http://www.w3.org/1999/xlink" x="0px" y="0px"
	 viewBox="0 0 192.5 43" style="enable-background:new 0 0 192.5 43;" xml:space="preserve">
<style type="text/css">
	.st0{fill:#334662;}
</style>
<path class="st0" d="M83.8,29.4c0,1-0.2,1.9-0.6,2.6c-0.4,0.7-1,1.3-1.7,1.8c-0.7,0.5-1.6,0.8-2.6,1c-1,0.2-2,0.3-3.1,0.3H64.6V12.6
	h13.1c0.8,0,1.5,0.2,2.1,0.5c0.6,0.3,1.2,0.8,1.6,1.3s0.8,1.2,1,1.8c0.2,0.7,0.4,1.4,0.4,2.1c0,1.1-0.3,2.1-0.8,3
	c-0.5,1-1.3,1.7-2.4,2.2c1.3,0.4,2.3,1,3.1,2C83.4,26.5,83.8,27.8,83.8,29.4z M70.8,17.9v3.5H75c0.4,0,0.8-0.1,1.2-0.3
	c0.3-0.2,0.5-0.7,0.5-1.4c0-0.6-0.1-1.1-0.4-1.3c-0.3-0.3-0.6-0.4-1-0.4L70.8,17.9L70.8,17.9z M77.5,28.1c0-0.5-0.1-1-0.4-1.4
	c-0.3-0.4-0.7-0.6-1.1-0.6h-5.1v3.8h4.9c0.5,0,0.9-0.2,1.3-0.5C77.3,29.1,77.5,28.7,77.5,28.1z"/>
<path class="st0" d="M86.3,35.1V12.6h10.3c1.1,0,2.1,0.2,3,0.7c0.9,0.5,1.7,1,2.4,1.8c0.7,0.7,1.2,1.6,1.6,2.5s0.6,1.9,0.6,2.8
	c0,1.3-0.3,2.5-0.9,3.7c-0.6,1.1-1.4,2.1-2.4,2.8l4.8,8.3h-7l-4-6.9h-2.3v6.9L86.3,35.1L86.3,35.1z M92.5,22.8h3.9
	c0.4,0,0.7-0.2,1.1-0.6c0.3-0.4,0.5-1,0.5-1.8c0-0.8-0.2-1.4-0.6-1.8C97,18.2,96.6,18,96.2,18h-3.7C92.5,18,92.5,22.8,92.5,22.8z"/>
<path class="st0" d="M128.2,28v7.1h-21.1V5.5h20.7v7.1h-12.6v4.2H126v6.6h-10.8V28H128.2z"/>
<path class="st0" d="M178.6,24.1v11.1h-6.2V12.6h4.8l9,11.5V12.6h6.2v22.5h-4.9L178.6,24.1z"/>
<path class="st0" d="M24.7,12.6h-8.5v22.5H8.1V12.6h-8.5V5.5h25.2L24.7,12.6L24.7,12.6z"/>
<path class="st0" d="M54.3,35.1V23.3l-3.8,8.3h-3.3l-3.8-8.3v11.9h-6.2V12.6h6.8l4.9,10.6l4.9-10.6h6.7v22.5L54.3,35.1L54.3,35.1z"
	/>
<path class="st0" d="M27,35.1V12.6h6.2v22.5L27,35.1L27,35.1z"/>
<path class="st0" d="M132.8,35.1V12.6h6.2v17.1h10.2v5.4L132.8,35.1L132.8,35.1z"/>
<path class="st0" d="M152.6,35.1V12.6h6.2v17.1H169v5.4L152.6,35.1L152.6,35.1z"/>
</svg>
